:FULLY-SPECIFIED
:FORCE-ALL-JOINTS-BE-3DOF
:DEGREES
1
root 7.46593 15.9937 -36.7321 7.11356 1.31487 -3.66776
lfemur -40.6897 6.42258 -16.3516
ltibia 43.9106 0 0
lfoot -14.6186 8.34667 0
ltoes -11.8487 0 0
rfemur -9.89801 4.72659 30.1099
rtibia 24.1198 0 0
rfoot 0 0 0
rtoes 0 0 0
lowerback -4.29912 0.189404 0.939401
upperback -1.51886 0.185188 2.55702
thorax 0.845091 0.0960327 2.10705
lowerneck -18.6579 -5.17414 -13.3376
upperneck 13.6797 -6.63107 16.9236
head 8.38994 -2.28192 7.17028
lclavicle 6.33626e-15 1.59028e-14 0
lhumerus -35.9267 -2.97855 86.2544
lradius 27.4056 0 0
lwrist 7.30557 0 0
lhand -13.3003 -23.0211 0
lfingers 7.12502 0 0
lthumb 12.8038 6.56624 0
rclavicle 6.33626e-15 1.59028e-14 0
rhumerus -38.7688 17.4551 -84.1031
rradius 56.1989 0 0
rwrist -28.5696 0 0
rhand -33.2015 -25.7513 0
rfingers 7.12502 0 0
rthumb -6.4087 -55.6344 0
2
root 7.48607 15.9858 -36.5835 7.12825 1.06567 -3.73643
lfemur -40.7655 6.4858 -16.2687
ltibia 43.7119 0 0
lfoot -14.2407 8.31549 0
ltoes -11.653 0 0
rfemur -9.0723 4.75914 30.0473
rtibia 23.5315 0 0
rfoot -0.0613263 0.0233154 0
rtoes -0.698793 0 0
lowerback -4.40591 0.214924 0.97919
upperback -1.51147 0.210815 2.59326
thorax 0.911565 0.108846 2.12632
lowerneck -18.7195 -5.16227 -13.3169
upperneck 13.7324 -6.60845 16.8695
head 8.41196 -2.27238 7.15206
lclavicle 5.41582e-15 1.43222e-14 0
lhumerus -36.1287 -3.07669 86.3901
lradius 27.3021 0 0
lwrist 7.12199 0 0
lhand -12.8123 -22.8844 0
lfingers 7.12502 0 0
lthumb 13.272 6.64488 0
rclavicle 5.41582e-15 1.43222e-14 0
rhumerus -38.9405 17.5131 -84.3413
rradius 56.1966 0 0
rwrist -28.5267 0 0
rhand -33.1441 -25.9657 0
rfingers 7.12502 0 0
rthumb -6.3533 -55.8502 0
3
root 7.50621 15.9779 -36.4349 7.14293 0.816472 -3.8051
lfemur -40.8413 6.54901 -16.1858
ltibia 43.5133 0 0
lfoot -13.8628 8.28431 0
ltoes -11.4572 0 0
rfemur -8.24659 4.79168 29.9847
rtibia 22.9432 0 0
rfoot -0.122653 0.0466308 0
rtoes -1.39759 0 0
lowerback -4.51269 0.240444 1.01898
upperback -1.50407 0.236442 2.62949
thorax 0.97804 0.121659 2.14558
lowerneck -18.7811 -5.15039 -13.2963
upperneck 13.7851 -6.58583 16.8154
head 8.43397 -2.26283 7.13383
lclavicle 4.49538e-15 1.27416e-14 0
lhumerus -36.3308 -3.17483 86.5259
lradius 27.1986 0 0
lwrist 6.93841 0 0
lhand -12.3242 -22.7477 0
lfingers 7.12502 0 0
lthumb 13.7401 6.72352 0
rclavicle 4.49538e-15 1.27416e-14 0
rhumerus -39.1123 17.5711 -84.5794
rradius 56.1942 0 0
rwrist -28.4838 0 0
rhand -33.0867 -26.1802 0
rfingers 7.12502 0 0
rthumb -6.29789 -56.066 0
4
root 7.52634 15.97 -36.2864 7.15762 0.567273 -3.87377
lfemur -40.917 6.61223 -16.1028
ltibia 43.3146 0 0
lfoot -13.4849 8.25313 0
ltoes -11.2615 0 0
rfemur -7.42087 4.82423 29.9221
rtibia 22.3549 0 0
rfoot -0.183979 0.0699462 0
rtoes -2.09638 0 0
lowerback -4.61948 0.265964 1.05877
upperback -1.49668 0.262069 2.66573
thorax 1.04451 0.134471 2.16485
lowerneck -18.8428 -5.13852 -13.2756
upperneck 13.8378 -6.5632 16.7613
head 8.45599 -2.25329 7.11561
lclavicle 3.57494e-15 1.11611e-14 0
lhumerus -36.5328 -3.27297 86.6616
lradius 27.0952 0 0
lwrist 6.75483 0 0
lhand -11.8362 -22.6109 0
lfingers 7.12502 0 0
lthumb 14.2083 6.80217 0
rclavicle 3.57494e-15 1.11611e-14 0
rhumerus -39.284 17.6292 -84.8176
rradius 56.1919 0 0
rwrist -28.441 0 0
rhand -33.0294 -26.3946 0
rfingers 7.12502 0 0
rthumb -6.24249 -56.2818 0
5
root 7.54648 15.962 -36.1378 7.1723 0.318074 -3.94243
lfemur -40.9928 6.67545 -16.0199
ltibia 43.1159 0 0
lfoot -13.1071 8.22195 0
ltoes -11.0657 0 0
rfemur -6.59516 4.85677 29.8595
rtibia 21.7666 0 0
rfoot -0.245305 0.0932617 0
rtoes -2.79517 0 0
lowerback -4.72627 0.291484 1.09856
upperback -1.48929 0.287696 2.70197
thorax 1.11099 0.147284 2.18412
lowerneck -18.9044 -5.12665 -13.255
upperneck 13.8905 -6.54058 16.7072
head 8.47801 -2.24375 7.09739
lclavicle 2.6545e-15 9.58048e-15 0
lhumerus -36.7348 -3.3711 86.7974
lradius 26.9917 0 0
lwrist 6.57125 0 0
lhand -11.3482 -22.4742 0
lfingers 7.12502 0 0
lthumb 14.6765 6.88081 0
rclavicle 2.6545e-15 9.58048e-15 0
rhumerus -39.4558 17.6872 -85.0558
rradius 56.1896 0 0
rwrist -28.3981 0 0
rhand -32.972 -26.609 0
rfingers 7.12502 0 0
rthumb -6.18709 -56.4976 0
6
root 7.56662 15.9541 -35.9892 7.18699 0.0688749 -4.0111
lfemur -41.0686 6.73867 -15.937
ltibia 42.9173 0 0
lfoot -12.7292 8.19077 0
ltoes -10.87 0 0
rfemur -5.76945 4.88932 29.7969
rtibia 21.1784 0 0
rfoot -0.306632 0.116577 0
rtoes -3.49396 0 0
lowerback -4.83305 0.317004 1.13835
upperback -1.48189 0.313324 2.73821
thorax 1.17746 0.160097 2.20338
lowerneck -18.966 -5.11478 -13.2343
upperneck 13.9432 -6.51796 16.6532
head 8.50002 -2.23421 7.07916
lclavicle 1.73406e-15 7.9999e-15 0
lhumerus -36.9368 -3.46924 86.9331
lradius 26.8882 0 0
lwrist 6.38768 0 0
lhand -10.8601 -22.3375 0
lfingers 7.12502 0 0
lthumb 15.1446 6.95945 0
rclavicle 1.73406e-15 7.9999e-15 0
rhumerus -39.6275 17.7452 -85.2939
rradius 56.1872 0 0
rwrist -28.3552 0 0
rhand -32.9146 -26.8235 0
rfingers 7.12502 0 0
rthumb -6.13168 -56.7135 0
7
root 7.58676 15.9462 -35.8406 7.20168 -0.180324 -4.07977
lfemur -41.1444 6.80188 -15.8541
ltibia 42.7186 0 0
lfoot -12.3513 8.15958 0
ltoes -10.6742 0 0
rfemur -4.94374 4.92186 29.7343
rtibia 20.5901 0 0
rfoot -0.367958 0.139892 0
rtoes -4.19276 0 0
lowerback -4.93984 0.342523 1.17814
upperback -1.4745 0.338951 2.77444
thorax 1.24394 0.17291 2.22265
lowerneck -19.0276 -5.1029 -13.2136
upperneck 13.9959 -6.49534 16.5991
head 8.52204 -2.22466 7.06094
lclavicle 8.13617e-16 6.41932e-15 0
lhumerus -37.1389 -3.56738 87.0689
lradius 26.7847 0 0
lwrist 6.2041 0 0
lhand -10.3721 -22.2008 0
lfingers 7.12502 0 0
lthumb 15.6128 7.03809 0
rclavicle 8.13617e-16 6.41932e-15 0
rhumerus -39.7993 17.8032 -85.5321
rradius 56.1849 0 0
rwrist -28.3123 0 0
rhand -32.8572 -27.0379 0
rfingers 7.12502 0 0
rthumb -6.07628 -56.9293 0
8
root 7.60689 15.9383 -35.692 7.21636 -0.429523 -4.14844
lfemur -41.2201 6.8651 -15.7712
ltibia 42.5199 0 0
lfoot -11.9734 8.1284 0
ltoes -10.4785 0 0
rfemur -4.11802 4.95441 29.6717
rtibia 20.0018 0 0
rfoot -0.429284 0.163208 0
rtoes -4.89155 0 0
lowerback -5.04663 0.368043 1.21793
upperback -1.46711 0.364578 2.81068
thorax 1.31041 0.185723 2.24192
lowerneck -19.0893 -5.09103 -13.193
upperneck 14.0486 -6.47272 16.545
head 8.54406 -2.21512 7.04271
lclavicle -1.06823e-16 4.83874e-15 0
lhumerus -37.3409 -3.66552 87.2046
lradius 26.6813 0 0
lwrist 6.02052 0 0
lhand -9.88407 -22.0641 0
lfingers 7.12502 0 0
lthumb 16.081 7.11674 0
rclavicle -1.06823e-16 4.83874e-15 0
rhumerus -39.971 17.8612 -85.7703
rradius 56.1826 0 0
rwrist -28.2695 0 0
rhand -32.7998 -27.2524 0
rfingers 7.12502 0 0
rthumb -6.02088 -57.1451 0
9
root 7.62703 15.9304 -35.5434 7.23105 -0.678722 -4.21711
lfemur -41.2959 6.92832 -15.6882
ltibia 42.3213 0 0
lfoot -11.5955 8.09722 0
ltoes -10.2827 0 0
rfemur -3.29231 4.98695 29.6091
rtibia 19.4135 0 0
rfoot -0.490611 0.186523 0
rtoes -5.59034 0 0
lowerback -5.15341 0.393563 1.25771
upperback -1.45971 0.390205 2.84692
thorax 1.37689 0.198536 2.26118
lowerneck -19.1509 -5.07916 -13.1723
upperneck 14.1013 -6.45009 16.4909
head 8.56607 -2.20558 7.02449
lclavicle -1.02726e-15 3.25816e-15 0
lhumerus -37.5429 -3.76366 87.3404
lradius 26.5778 0 0
lwrist 5.83694 0 0
lhand -9.39604 -21.9273 0
lfingers 7.12502 0 0
lthumb 16.5491 7.19538 0
rclavicle -1.02726e-15 3.25816e-15 0
rhumerus -40.1428 17.9193 -86.0084
rradius 56.1802 0 0
rwrist -28.2266 0 0
rhand -32.7424 -27.4668 0
rfingers 7.12502 0 0
rthumb -5.96547 -57.3609 0
10
root 7.64717 15.9225 -35.3949 7.24573 -0.927921 -4.28578
lfemur -41.3717 6.99154 -15.6053
ltibia 42.1226 0 0
lfoot -11.2176 8.06604 0
ltoes -10.087 0 0
rfemur -2.4666 5.0195 29.5465
rtibia 18.8252 0 0
rfoot -0.551937 0.209839 0
rtoes -6.28913 0 0
lowerback -5.2602 0.419083 1.2975
upperback -1.45232 0.415832 2.88316
thorax 1.44336 0.211349 2.28045
lowerneck -19.2125 -5.06728 -13.1517
upperneck 14.154 -6.42747 16.4368
head 8.58809 -2.19603 7.00627
lclavicle -1.9477e-15 1.67758e-15 0
lhumerus -37.7449 -3.8618 87.4761
lradius 26.4743 0 0
lwrist 5.65336 0 0
lhand -8.90801 -21.7906 0
lfingers 7.12502 0 0
lthumb 17.0173 7.27402 0
rclavicle -1.9477e-15 1.67758e-15 0
rhumerus -40.3145 17.9773 -86.2466
rradius 56.1779 0 0
rwrist -28.1837 0 0
rhand -32.6851 -27.6812 0
rfingers 7.12502 0 0
rthumb -5.91007 -57.5767 0
